<svg width="22" height="22" viewBox="0 0 22 22" fill="none" xmlns="http://www.w3.org/2000/svg">
<g id="refresh-ccw" clip-path="url(#clip0_160_20)">
<path id="Vector" d="M0.916992 3.66675V9.16675H6.41699" stroke="white" stroke-width="2" stroke-linecap="round" stroke-linejoin="round"/>
<path id="Vector_2" d="M21.083 18.3333V12.8333H15.583" stroke="white" stroke-width="2" stroke-linecap="round" stroke-linejoin="round"/>
<path id="Vector_3" d="M18.7828 8.25003C18.3179 6.93625 17.5278 5.76165 16.4861 4.83583C15.4445 3.91001 14.1853 3.26315 12.8261 2.9556C11.4668 2.64805 10.0518 2.68984 8.71307 3.07707C7.37433 3.4643 6.15551 4.18435 5.17033 5.17003L0.916992 9.1667M21.0837 12.8334L16.8303 16.83C15.8451 17.8157 14.6263 18.5358 13.2876 18.923C11.9489 19.3102 10.5338 19.352 9.17459 19.0445C7.81534 18.7369 6.55614 18.09 5.5145 17.1642C4.47286 16.2384 3.68273 15.0638 3.21783 13.75" stroke="white" stroke-width="2" stroke-linecap="round" stroke-linejoin="round"/>
</g>
<defs>
<clipPath id="clip0_160_20">
<rect width="22" height="22" fill="white"/>
</clipPath>
</defs>
</svg>
